<svg xmlns="http://www.w3.org/2000/svg" xmlns:xlink="http://www.w3.org/1999/xlink" aria-hidden="true" role="img" class="iconify iconify--logos" width="500" height="500"  preserveAspectRatio="xMidYMid meet" viewBox="0 0 500 500">
  <defs>
    <style>
      .cls-1 {
        fill: #fc0;
        stroke-width: 11px;
      }

      .cls-1, .cls-2, .cls-3 {
        stroke: #000;
        stroke-miterlimit: 10;
      }

      .cls-2 {
        stroke-width: 16px;
      }

      .cls-2, .cls-3 {
        fill: none;
        stroke-linecap: round;
      }

      .cls-3 {
        stroke-width: 5px;
      }
    </style>
  </defs>
  <g id="Layer_2" data-name="Layer 2">
    <rect class="cls-1" x="76.45" y="76.45" width="347.09" height="347.09" rx="25" ry="25" transform="translate(-103.55 250) rotate(-45)"/>
  </g>
  <g id="Layer_3" data-name="Layer 3">
    <g>
      <circle cx="242.78" cy="174.98" r="22.03"/>
      <line class="cls-2" x1="229.2" y1="207.65" x2="241.36" y2="256.06"/>
      <line class="cls-2" x1="194.62" y1="247.49" x2="216.69" y2="273.73"/>
      <line class="cls-2" x1="216.69" y1="273.73" x2="216.69" y2="319.4"/>
      <line class="cls-2" x1="184.19" y1="233.91" x2="183.43" y2="273.73"/>
      <line class="cls-2" x1="183.43" y1="273.73" x2="148.75" y2="309.13"/>
      <path d="M237.09,207.77l-32.51,41.62c-1.67,2.06-4.7,2.37-6.76.7l-19.89-16.18c-2.06-1.67-2.37-4.7-.7-6.76l32.51-41.62c1.67-2.06,4.7-2.37,6.76-.7l19.89,16.18c2.06,1.67,2.37,4.7.7,6.76Z"/>
      <line class="cls-2" x1="176.15" y1="197.58" x2="159.03" y2="218.66"/>
      <line class="cls-2" x1="211.79" y1="193.48" x2="176.15" y2="197.58"/>
      <line class="cls-3" x1="148.75" y1="206.32" x2="295.89" y2="293.68"/>
    </g>
    <g>
      <polygon points="323.87 303.29 296.01 317.59 278.12 293.33 305.97 275.44 323.87 303.29"/>
      <polygon points="346.75 307.5 318.89 316.99 300.99 297.54 328.85 279.65 346.75 307.5"/>
      <rect x="299.7" y="261.02" width="33.11" height="33.11" transform="translate(-99.85 214.99) rotate(-32.72)"/>
      <polygon points="335.78 309.17 307.92 317.46 290.03 299.21 317.88 281.31 335.78 309.17"/>
      <polygon points="360.54 315.86 332.68 316.94 314.78 305.9 342.64 288 360.54 315.86"/>
      <polygon points="362.01 312.52 334.16 318.41 316.26 302.56 344.12 284.66 362.01 312.52"/>
      <rect x="325.67" y="268.79" width="33.11" height="33.11" transform="translate(-99.94 230.26) rotate(-32.72)"/>
      <polygon points="384.89 314.71 357.03 318.19 339.14 297.54 366.99 279.65 384.89 314.71"/>
      <polygon points="384.89 318.95 267.7 319.3 267.35 313.82 384.55 313.47 384.89 318.95"/>
      <polygon points="308.01 307.5 282.56 318.19 268.27 314.36 290.12 279.65 308.01 307.5"/>
    </g>
  </g>
</svg>